<svg width="20" height="20" viewBox="0 0 20 20" fill="none" xmlns="http://www.w3.org/2000/svg">
<path d="M16.1164 4.00883C15.0388 3.30649 14.2617 2.18226 14.0189 0.872401C13.9667 0.58946 13.9376 0.297991 13.9376 0H10.4992L10.4937 13.7798C10.436 15.3229 9.16575 16.5616 7.60907 16.5616C7.12496 16.5616 6.66945 16.4407 6.26811 16.2295C5.34806 15.7454 4.71846 14.7811 4.71846 13.6715C4.71846 12.0777 6.01527 10.7808 7.60857 10.7808C7.90606 10.7808 8.19151 10.83 8.46141 10.9143V7.40412C8.18198 7.36599 7.89803 7.34241 7.60857 7.34241C4.11897 7.34241 1.28003 10.1814 1.28003 13.6715C1.28003 15.8126 2.34959 17.7074 3.98201 18.8532C5.00993 19.5751 6.26059 20 7.60907 20C11.0987 20 13.9376 17.1611 13.9376 13.6715V6.68372C15.2861 7.65144 16.9386 8.22184 18.7215 8.22184V4.7834C17.7613 4.7834 16.8669 4.49796 16.1164 4.00883Z" fill="black"/>
</svg>
