<svg width="20" height="20" viewBox="0 0 20 20" fill="none" xmlns="http://www.w3.org/2000/svg">
<g clip-path="url(#clip0_4140_2)">
<path fill-rule="evenodd" clip-rule="evenodd" d="M10 0.280029C4.477 0.280029 0 4.76403 0 10.297C0 14.722 2.865 18.477 6.839 19.801C7.339 19.893 7.521 19.584 7.521 19.318C7.521 19.081 7.513 18.45 7.508 17.615C4.726 18.22 4.139 16.272 4.139 16.272C3.685 15.114 3.029 14.806 3.029 14.806C2.121 14.186 3.098 14.198 3.098 14.198C4.101 14.268 4.629 15.23 4.629 15.23C5.521 16.76 6.97 16.318 7.539 16.062C7.631 15.415 7.889 14.974 8.175 14.724C5.955 14.471 3.62 13.611 3.62 9.77303C3.62 8.68003 4.01 7.78503 4.649 7.08503C4.546 6.83203 4.203 5.81303 4.747 4.43503C4.747 4.43503 5.587 4.16503 7.497 5.46103C8.31277 5.23854 9.15444 5.12522 10 5.12403C10.85 5.12803 11.705 5.23903 12.504 5.46103C14.413 4.16503 15.251 4.43403 15.251 4.43403C15.797 5.81303 15.453 6.83203 15.351 7.08503C15.991 7.78503 16.379 8.68003 16.379 9.77303C16.379 13.621 14.04 14.468 11.813 14.716C12.172 15.025 12.491 15.636 12.491 16.571C12.491 17.909 12.479 18.99 12.479 19.318C12.479 19.586 12.659 19.898 13.167 19.8C15.1583 19.1321 16.8893 17.8553 18.1155 16.1501C19.3416 14.4448 20.0009 12.3973 20 10.297C20 4.76403 15.522 0.280029 10 0.280029Z" fill="black"/>
</g>
<defs>
<clipPath id="clip0_4140_2">
<rect width="20" height="20" fill="white"/>
</clipPath>
</defs>
</svg>
