<svg width="20" height="20" viewBox="0 0 20 20" fill="none" xmlns="http://www.w3.org/2000/svg">
<g clip-path="url(#clip0_2064_3)">
<path fill-rule="evenodd" clip-rule="evenodd" d="M17.318 0H2.6125C1.23516 0.0390625 0.0335938 1.24453 0 2.62187V17.3156C0.0146981 18.0115 0.293151 18.6758 0.779028 19.1741C1.2649 19.6725 1.92193 19.9677 2.61719 20H17.3172C18.0232 19.9851 18.6963 19.6983 19.1961 19.1994C19.6959 18.7004 19.9839 18.0279 20 17.3219V2.61563C19.9633 1.21641 18.7188 0 17.318 0ZM3.91219 9.66169C3.91312 8.82223 3.91404 7.98288 3.91953 7.14375C4.27422 7.14062 4.62969 7.14141 4.98437 7.14297C4.99141 8.72031 4.99141 10.2984 4.99141 11.8758C4.99688 12.1984 4.91016 12.557 4.63906 12.7586C4.40313 12.9395 4.10502 12.9339 3.81733 12.9286C3.73731 12.9271 3.6581 12.9256 3.58125 12.9281C3.44062 12.6258 3.30469 12.3242 3.17891 12.0117C3.23751 12.0112 3.29611 12.0115 3.35469 12.0118C3.48354 12.0124 3.61227 12.013 3.74063 12.0055C3.76608 12.0066 3.79145 12.0017 3.81471 11.9913C3.83797 11.9809 3.85849 11.9652 3.87464 11.9455C3.89078 11.9258 3.90212 11.9026 3.90774 11.8778C3.91337 11.8529 3.91312 11.8271 3.90703 11.8023C3.91062 11.0888 3.91141 10.3752 3.91219 9.66169ZM7.49141 8.88906C7.76641 8.28646 8.0362 7.68125 8.30078 7.07344C8.63296 7.06847 8.96513 7.06995 9.29848 7.07143C9.33204 7.07158 9.36563 7.07173 9.39922 7.07187C9.32361 7.26491 9.23547 7.45353 9.14737 7.64206C9.01334 7.92888 8.87941 8.2155 8.78984 8.51719C8.97793 8.59724 9.1937 8.5865 9.40978 8.57574C9.54373 8.56907 9.67781 8.5624 9.80547 8.57734C9.69656 8.83198 9.58255 9.08449 9.4685 9.33707C9.29702 9.71686 9.12546 10.0968 8.97109 10.4844C9.15885 10.5221 9.35052 10.5192 9.54184 10.5164C9.59253 10.5156 9.64319 10.5148 9.69375 10.5148C9.5892 10.7541 9.48272 10.9918 9.37621 11.2297C9.34741 11.294 9.31861 11.3583 9.28984 11.4227C9.12014 11.4182 8.95029 11.4203 8.78048 11.4223C8.53598 11.4253 8.29155 11.4283 8.04766 11.4117C7.81953 11.4094 7.61094 11.1773 7.69453 10.9492C7.78493 10.6719 7.90567 10.4067 8.02643 10.1414C8.10708 9.96425 8.18774 9.78707 8.25937 9.60625C8.1937 9.60187 8.12474 9.60337 8.05495 9.60489C7.85074 9.60934 7.63944 9.61394 7.48281 9.47187C7.31875 9.30859 7.41328 9.06953 7.49141 8.88906ZM13.9844 7.48437V7.07734C14.0572 7.07703 14.13 7.07674 14.2029 7.07646C14.4907 7.07534 14.7797 7.07421 15.0727 7.07109V7.47734C15.5914 7.45703 16.1953 7.45859 16.5703 7.87891C16.8828 8.22417 16.8739 8.68725 16.8653 9.13308C16.8628 9.26127 16.8604 9.38803 16.8656 9.51016C17.2578 9.51719 17.693 9.60937 17.9344 9.94844C18.1462 10.2472 18.1375 10.611 18.1289 10.9664C18.126 11.0868 18.1232 11.2062 18.1289 11.3219C18.1258 11.4116 18.128 11.5053 18.1302 11.6004C18.1387 11.9656 18.1476 12.3516 17.8625 12.6156C17.567 12.9373 17.1323 12.9313 16.7196 12.9257C16.6042 12.9241 16.4905 12.9225 16.382 12.9281C16.2527 12.6635 16.1395 12.396 16.0261 12.128C16.0073 12.0836 15.9884 12.039 15.9695 11.9945C16.097 11.9902 16.2245 11.9917 16.3519 11.9931C16.5259 11.9951 16.6998 11.997 16.8734 11.9844C16.9202 11.9816 16.9638 11.9603 16.9949 11.9253C17.026 11.8903 17.0418 11.8444 17.0391 11.7977C17.0535 11.5093 17.0535 11.2204 17.0391 10.932C17.0453 10.7281 16.8336 10.5984 16.6484 10.6141C16.2974 10.6089 15.9468 10.6106 15.596 10.6123C15.4205 10.6132 15.2451 10.6141 15.0695 10.6141V12.9242H13.9875V10.6125C13.8675 10.6125 13.7474 10.6129 13.6272 10.6134C13.3869 10.6142 13.1464 10.6151 12.9063 10.6125C12.9023 10.2508 12.9016 9.88906 12.9063 9.52656C13.0754 9.52399 13.2446 9.52418 13.4139 9.52438C13.6044 9.5246 13.7949 9.52482 13.9852 9.52109C13.9914 9.20443 13.9914 8.88984 13.9852 8.57734C13.7461 8.57266 13.507 8.57266 13.2672 8.57266V7.48437H13.9844ZM10.1234 8.57266V7.48516C10.6193 7.48328 11.1149 7.48309 11.6099 7.48291C11.94 7.48278 12.2698 7.48266 12.5992 7.48203V8.57031H11.918V11.8336C12.2656 11.8375 12.6141 11.8375 12.9617 11.8375V12.9234C12.56 12.9234 12.1576 12.924 11.7548 12.9245C10.9482 12.9255 10.1402 12.9266 9.33359 12.9234C9.49687 12.5609 9.66094 12.1984 9.82891 11.8375C9.97855 11.8357 10.1284 11.8359 10.2782 11.8361C10.453 11.8363 10.6278 11.8365 10.8023 11.8336V8.57266H10.1234ZM17.041 8.33963C17.0321 8.06205 17.0227 7.7651 17.2602 7.58516C17.5336 7.35859 17.9875 7.50469 18.0898 7.84062C18.2203 8.14687 17.9758 8.52578 17.6508 8.55547C17.504 8.56851 17.3567 8.56633 17.2097 8.56415C17.1541 8.56332 17.0985 8.5625 17.043 8.5625C17.0458 8.49161 17.0434 8.41636 17.041 8.33963ZM2.08061 8.94599C2.0902 8.8213 2.0998 8.6966 2.10938 8.57187C2.23599 8.57076 2.36281 8.57114 2.48987 8.57152C2.71872 8.5722 2.94833 8.57288 3.17891 8.56484C3.1656 8.93606 3.13523 9.30669 3.10486 9.67728C3.08532 9.91582 3.06577 10.1543 3.05078 10.393C3.00547 11.1094 2.84297 11.8469 2.40547 12.432C2.21016 12.018 2.02734 11.6 1.84453 11.182C1.90097 11.0298 1.93569 10.8705 1.94766 10.7086C1.99019 10.1208 2.03539 9.53358 2.08061 8.94599ZM5.86953 10.5539L5.71328 8.57187H5.71094C6.07031 8.57031 6.43021 8.57057 6.79063 8.57266C6.80429 8.75015 6.81806 8.92764 6.83183 9.10512C6.87314 9.63779 6.91445 10.1705 6.95312 10.7031C6.96641 10.8662 7.00325 11.0264 7.0625 11.1789C6.87969 11.5984 6.69531 12.0156 6.50234 12.4289C6.09766 11.8914 5.92656 11.2164 5.86953 10.5539ZM8.17604 12.9284C7.79743 12.9403 7.41854 12.9522 7.05391 12.8445H7.05156C7.21615 12.4799 7.38359 12.1167 7.55391 11.7547C7.93546 11.8526 8.32692 11.8453 8.71822 11.8381C8.89818 11.8347 9.07811 11.8314 9.25703 11.8383C9.09453 12.2023 8.92813 12.5648 8.76094 12.9266C8.56739 12.9162 8.37175 12.9223 8.17604 12.9284ZM15.3156 8.5728C15.2269 8.58001 15.1391 8.58714 15.0601 8.57582C15.0601 8.89353 15.0624 9.21124 15.0671 9.52895H15.7968C15.7958 9.435 15.7974 9.34114 15.7991 9.24739C15.8024 9.05423 15.8058 8.86155 15.7858 8.66957C15.6672 8.54424 15.4899 8.55864 15.3156 8.5728Z" fill="black"/>
</g>
<defs>
<clipPath id="clip0_2064_3">
<rect width="20" height="20" fill="white"/>
</clipPath>
</defs>
</svg>
