<svg width="20" height="20" viewBox="0 0 20 20" fill="none" xmlns="http://www.w3.org/2000/svg">
<path d="M9.63768 6.84998C9.16667 6.84998 8.78623 6.46954 8.78623 5.98041C8.78623 5.49128 9.16667 5.11085 9.63768 5.11085C10.1087 5.11085 10.4891 5.49128 10.4891 5.98041C10.4891 6.46954 10.1087 6.84998 9.63768 6.84998ZM4.81884 6.84998C4.34783 6.84998 3.96739 6.46954 3.96739 5.98041C3.96739 5.49128 4.34783 5.11085 4.81884 5.11085C5.28986 5.11085 5.67029 5.49128 5.67029 5.98041C5.67029 6.46954 5.28986 6.84998 4.81884 6.84998ZM7.22826 1.84998C3.24275 1.84998 0 4.56737 0 7.91882C0 9.74853 0.978261 11.3971 2.5 12.5021C2.62681 12.5927 2.69928 12.7377 2.69928 12.9007C2.69928 12.955 2.68116 13.0094 2.68116 13.0637C2.55435 13.5166 2.37319 14.2594 2.35507 14.2956C2.33696 14.35 2.31884 14.4043 2.31884 14.4768C2.31884 14.6036 2.42754 14.7123 2.55435 14.7123C2.6087 14.7123 2.64493 14.6942 2.69928 14.6761L4.27536 13.7521C4.40217 13.6797 4.52899 13.6435 4.6558 13.6435C4.72826 13.6435 4.80072 13.6616 4.87319 13.6797C5.61594 13.8971 6.41304 14.0058 7.22826 14.0058C7.35507 14.0058 7.5 14.0058 7.62681 13.9877C7.46377 13.5166 7.3913 13.0094 7.3913 12.5021C7.3913 9.44056 10.3442 6.95867 13.9855 6.95867C14.1123 6.95867 14.1486 6.95867 14.2754 6.97679C13.7319 4.06012 10.8333 1.84998 7.22826 1.84998Z" fill="black"/>
<path d="M15.9783 11.6326C15.5616 11.6326 15.2174 11.2884 15.2174 10.8717C15.2174 10.4551 15.5616 10.1109 15.9783 10.1109C16.395 10.1109 16.7392 10.4551 16.7392 10.8717C16.7392 11.2884 16.395 11.6326 15.9783 11.6326ZM11.9747 11.6326C11.558 11.6326 11.2138 11.2884 11.2138 10.8717C11.2138 10.4551 11.558 10.1109 11.9747 10.1109C12.3913 10.1109 12.7355 10.4551 12.7355 10.8717C12.7355 11.2884 12.3913 11.6326 11.9747 11.6326ZM17.9167 16.3246C19.1848 15.4007 20 14.0239 20 12.5022C20 9.71231 17.3008 7.44781 13.9674 7.44781C10.6341 7.44781 7.93481 9.71231 7.93481 12.5022C7.93481 15.292 10.6341 17.5565 13.9674 17.5565C14.6558 17.5565 15.3261 17.4659 15.9421 17.2848C15.9964 17.2667 16.0508 17.2667 16.1232 17.2667C16.2319 17.2667 16.3406 17.3029 16.4493 17.3572L17.7718 18.1181C17.808 18.1362 17.8442 18.1543 17.8805 18.1543C17.9892 18.1543 18.0797 18.0638 18.0797 17.9551C18.0797 17.9007 18.0616 17.8464 18.0435 17.8101C18.0435 17.7739 17.8805 17.1761 17.7718 16.7956C17.7537 16.7594 17.7537 16.7051 17.7537 16.6688C17.7537 16.5239 17.8261 16.3971 17.9167 16.3246Z" fill="black"/>
</svg>
