<svg width="24" height="24" viewBox="0 0 24 24" fill="none" xmlns="http://www.w3.org/2000/svg">
<path fill-rule="evenodd" clip-rule="evenodd" d="M23.3303 11.8432C22.6355 15.2168 21.515 18.5758 20.4777 20.4033C19.7854 21.6167 19.0954 22.2381 18.3052 22.3531C18.178 22.371 18.05 22.38 17.9211 22.38C15.5823 22.38 13.356 19.3293 12.0006 17.0027C10.6428 19.3293 8.41648 22.38 6.08008 22.38C5.95123 22.38 5.82319 22.371 5.69597 22.3531C4.90331 22.2381 4.2134 21.6167 3.52349 20.4033C2.48373 18.5758 1.36568 15.2168 0.668428 11.8432C0.208486 9.60962 -0.437391 5.55099 0.421329 3.47886C1.04274 1.97431 2.0825 1.67829 2.64764 1.6367C4.74429 1.48013 7.23972 4.05867 10.9731 10.2579C11.3523 10.8842 11.6997 11.4665 12.0006 11.9704C12.3015 11.464 12.6514 10.8818 13.0257 10.2579C16.759 4.06111 19.2447 1.48013 21.3511 1.6367C21.9163 1.67829 22.956 1.97431 23.5799 3.47886C24.4361 5.55099 23.7927 9.60962 23.3303 11.8432ZM21.2948 4.42318L21.2924 4.41829C21.2092 4.22013 20.9915 4.14429 20.8055 4.25194C20.1205 4.65315 18.4031 6.1259 15.1443 11.5325C14.4104 12.7508 13.7792 13.8126 13.4122 14.434C14.8018 17.1397 16.3994 19.1116 17.3707 19.7158C17.6202 19.87 17.9456 19.8015 18.1046 19.5568C18.6282 18.7422 19.5994 16.6945 20.4973 13.1203C21.4759 9.23287 21.8037 5.65619 21.2948 4.42318ZM8.8544 11.5325C5.6079 6.14302 3.89046 4.66293 3.20055 4.25438C3.01951 4.14918 2.78709 4.22747 2.70636 4.42318C2.19504 5.65619 2.52287 9.23287 3.50147 13.1203C4.4189 16.7654 5.41219 18.8253 5.93084 19.6057C6.06051 19.8015 6.31494 19.87 6.52289 19.7574C6.98039 19.5152 7.7755 18.8743 8.92535 17.2033C9.64462 16.1563 10.2416 15.0823 10.5841 14.4266C10.2171 13.8077 9.5859 12.7484 8.8544 11.5325Z" fill="black"/>
</svg>
