<svg width="20" height="20" viewBox="0 0 20 20" fill="none" xmlns="http://www.w3.org/2000/svg">
<g clip-path="url(#clip0_4142_20)">
<path fill-rule="evenodd" clip-rule="evenodd" d="M8.18544 5.21525C8.24387 5.17482 8.30231 5.13102 8.36075 5.08722C8.47756 4.99963 8.59444 4.91204 8.71131 4.85139C8.71131 4.85139 8.7405 4.85139 8.7405 4.82107C8.8615 4.73734 8.9825 4.66805 9.11312 4.59327C9.17175 4.55974 9.23225 4.52509 9.29556 4.48754C9.31012 4.48754 9.31744 4.47995 9.32475 4.47238C9.33206 4.4648 9.33937 4.45722 9.35394 4.45722C9.73375 4.24497 10.1135 4.09336 10.5225 3.94175C10.5371 3.94175 10.5517 3.93417 10.5663 3.9266C10.5809 3.91902 10.5955 3.91144 10.6101 3.91144C10.8146 3.85079 11.0191 3.79015 11.1944 3.72951C11.2236 3.72951 11.2528 3.72951 11.2528 3.69919C11.4281 3.63854 11.6326 3.60822 11.8371 3.5779C11.8662 3.5779 11.8955 3.5779 11.9247 3.54758L12.5381 3.45662H12.655C12.8595 3.4263 13.0932 3.4263 13.2977 3.4263C13.5314 3.4263 13.7651 3.4263 13.9988 3.45662H14.1156C14.2325 3.47178 14.3421 3.48694 14.4516 3.5021C14.5611 3.51726 14.6707 3.53242 14.7875 3.54758C14.8167 3.54758 14.8752 3.54758 14.9044 3.5779C15.1089 3.60822 15.3426 3.66887 15.5471 3.72951C15.5617 3.72951 15.5762 3.73709 15.5909 3.74467C15.6055 3.75225 15.6201 3.75983 15.6347 3.75983C15.8684 3.82047 16.0729 3.88111 16.2774 3.97208C16.2384 3.90132 16.2059 3.84067 16.1789 3.79014C16.1249 3.68909 16.0924 3.62844 16.0729 3.60822C14.7291 1.33413 12.4213 0 9.909 0C8.38994 0 6.08215 0.545782 4.3586 2.69859C3.21931 4.154 2.81033 5.85199 3.07324 7.51968C3.24852 8.67187 3.86198 10.2182 4.76757 11.1885C5.05971 8.7325 6.34506 6.61 8.18544 5.21525ZM18.6436 7.67131C16.8324 5.2456 13.7067 4.54821 10.9022 5.63977L11.1651 5.73073C15.3426 7.2165 17.5919 11.9162 16.1897 16.2219C15.81 17.3741 15.2257 18.3747 14.4954 19.1934C15.401 18.9204 16.3066 18.5566 17.0953 17.9199C20.2795 15.4032 20.9222 10.7337 18.6436 7.67131ZM8.03937 15.2212C8.62362 15.3729 9.23712 15.4335 9.87981 15.4335C11.8371 15.4335 13.3561 14.9787 14.8167 13.8568C14.7875 14.4936 14.6122 15.2212 14.437 15.6761C13.0932 19.3146 9.1495 20.8913 5.03049 19.4966C1.43733 18.2837 -0.753624 13.9174 0.239608 10.2789C0.502522 9.30862 0.765438 8.64156 1.29126 7.79256C1.58339 10.1273 2.9856 12.4317 5.0597 13.8265C5.20576 13.9477 5.32261 14.1297 5.32261 14.3419C5.32261 14.4329 5.32261 14.4936 5.2934 14.5542C5.14734 15.1606 4.94285 16.1309 4.94285 16.1916C4.94285 16.237 4.93554 16.2749 4.92824 16.3128C4.92094 16.3507 4.91364 16.3886 4.91364 16.4341C4.91364 16.616 5.0597 16.7373 5.23497 16.7373C5.2934 16.7373 5.35182 16.707 5.41025 16.6767L7.33831 15.3729C7.48437 15.2516 7.63044 15.1909 7.80569 15.1909C7.89331 15.1909 7.98094 15.1909 8.03937 15.2212Z" fill="black"/>
</g>
<defs>
<clipPath id="clip0_4142_20">
<rect width="20" height="20" fill="white"/>
</clipPath>
</defs>
</svg>
