<svg width="512" height="512" viewBox="0 0 512 512" fill="none" xmlns="http://www.w3.org/2000/svg">
  <style>
    rect { fill: #ffffff; }
    
    @media (prefers-color-scheme: dark) {
      rect { fill: #ffffff; }
    }
  </style>
  <rect width='512' height='512' rx='96' />
  <path d="M337.78 57.6985C338.91 57.6985 340.039 57.6985 341.17 57.6985C342.3 56.5662 342.865 56 342.865 56C343.995 56 345.124 56 346.254 56C348.515 56 350.209 56.5662 351.339 57.6985C352.469 57.6985 354.729 59.9632 358.118 64.4926C361.509 67.8896 366.594 73.5513 373.373 81.4777C381.282 88.2718 384.673 92.2349 383.543 93.3673C383.543 94.4996 379.023 97.8966 369.983 103.558C362.074 108.088 354.729 112.617 347.95 117.146C341.169 120.544 336.65 122.808 334.39 123.94C333.26 125.073 333.26 126.771 334.39 129.036C335.521 130.168 336.085 131.301 336.085 132.433C336.085 132.433 337.215 133.565 339.475 135.83C341.735 136.962 343.995 138.095 346.254 139.227C349.644 140.359 353.6 142.624 358.118 146.021C362.639 148.286 365.464 149.984 366.594 151.117C367.723 152.249 368.288 155.08 368.288 159.609C368.288 163.006 368.288 165.271 368.288 166.404C368.288 167.535 367.723 169.234 366.594 171.498C366.594 173.764 366.029 175.462 364.899 176.594L363.203 181.69C368.853 188.484 373.373 193.58 376.763 196.977C381.282 200.373 383.543 203.205 383.543 205.469C384.673 206.602 384.108 208.3 381.848 210.565C379.588 212.829 377.328 215.66 375.068 219.057C372.808 221.322 371.679 223.02 371.679 224.153C371.679 225.285 371.114 232.079 369.983 244.534C369.983 255.858 369.418 268.314 368.288 281.902C368.288 294.358 367.723 301.718 366.594 303.983C366.594 306.248 365.464 308.512 363.203 310.777C360.944 313.041 359.249 314.74 358.118 315.873C356.989 317.004 356.424 318.137 356.424 319.27C357.554 319.27 358.684 319.27 359.814 319.27C360.944 319.27 362.074 319.836 363.203 320.968C364.334 320.968 365.464 320.968 366.594 320.968C367.723 320.968 368.853 320.968 369.983 320.968C371.114 319.836 373.373 318.703 376.763 317.571C380.153 315.307 384.673 312.475 390.322 309.078C395.972 304.549 399.362 302.285 400.492 302.285C402.752 302.285 405.577 304.549 408.966 309.078C412.356 312.475 415.181 315.873 417.441 319.27C420.831 322.666 423.656 326.629 425.916 331.159C429.306 334.556 431 336.821 431 337.953C431 339.086 431 341.35 431 344.747C431 347.012 429.306 348.71 425.916 349.843C422.526 349.843 414.616 349.276 402.187 348.145C390.887 345.879 380.153 344.181 369.983 343.049C360.944 341.916 350.774 341.35 339.475 341.35C328.175 340.217 320.831 340.217 317.441 341.35L314.051 343.049C317.441 345.313 320.831 348.145 324.221 351.541C327.61 354.938 336.65 359.468 351.339 365.13C366.029 370.79 379.023 374.755 390.322 377.019C401.622 379.284 408.966 380.982 412.356 382.114C415.746 382.114 418.571 382.681 420.831 383.813C424.221 384.945 425.916 385.511 425.916 385.511C427.045 385.511 427.61 386.077 427.61 387.21C428.741 387.21 429.306 387.776 429.306 388.908C429.306 388.908 429.306 389.474 429.306 390.607C429.306 391.739 429.306 392.872 429.306 394.004C429.306 395.136 428.741 396.269 427.61 397.401C426.48 397.401 424.221 398.533 420.831 400.798C417.441 401.931 414.616 403.062 412.356 404.195C410.096 405.328 407.837 407.025 405.577 409.291C403.316 410.423 401.622 411.556 400.492 412.687C399.362 412.687 395.972 414.953 390.322 419.482C385.802 422.879 381.282 424.578 376.763 424.578C372.243 425.709 368.288 425.143 364.899 422.879C362.639 420.615 360.944 418.916 359.814 417.783C359.814 416.65 358.684 415.519 356.424 414.386C354.164 413.254 352.469 412.687 351.339 412.687C350.209 411.556 347.95 410.423 344.56 409.291C341.17 408.158 334.39 403.629 324.221 395.702C314.051 387.776 307.272 382.114 303.881 378.718C301.622 375.321 299.926 373.056 298.797 371.923C297.667 370.79 295.972 369.093 293.712 366.827C292.582 364.563 291.452 362.864 290.323 361.732C289.193 359.468 288.062 357.769 286.932 356.637C286.932 355.504 286.367 353.806 285.238 351.541C284.108 349.276 282.977 347.578 281.847 346.446L278.458 343.049C276.198 346.446 274.503 348.71 273.373 349.843C273.373 350.975 273.373 353.239 273.373 356.637C273.373 360.034 273.373 366.827 273.373 377.019C273.373 386.077 272.808 394.57 271.679 402.497C271.679 409.291 271.679 416.084 271.679 422.879C271.679 429.673 271.113 433.636 269.983 434.768C269.983 435.9 269.418 438.732 268.288 443.26C267.159 447.791 263.768 451.187 258.119 453.452C253.599 456.849 249.644 456.849 246.254 453.452C243.995 451.187 241.734 448.922 239.475 446.658C238.345 445.526 237.78 441.562 237.78 434.768C237.78 427.974 237.78 420.048 237.78 410.989C238.91 400.798 239.475 392.306 239.475 385.511C240.604 378.718 241.169 374.188 241.169 371.923C241.169 369.659 240.604 367.96 239.475 366.827C239.475 365.696 238.91 365.13 237.78 365.13C237.78 363.997 237.215 363.431 236.085 363.431C236.085 362.298 236.085 361.732 236.085 361.732C236.085 361.732 235.52 361.732 234.39 361.732C234.39 361.732 233.26 362.298 231.001 363.431C229.87 364.563 228.175 366.262 225.916 368.526C224.785 369.659 221.961 372.489 217.441 377.019C214.051 380.415 203.317 388.343 185.238 400.798C168.288 413.254 156.989 420.615 151.339 422.879C145.689 426.275 139.475 429.673 132.695 433.07C127.045 436.467 118.571 440.43 107.271 444.959C97.1017 449.489 91.452 451.754 90.322 451.754C89.1921 451.754 88.0622 451.754 86.9322 451.754C86.9322 451.754 86.3672 451.187 85.2373 450.055C85.2373 450.055 84.6723 450.055 83.5424 450.055C83.5424 450.055 82.9774 448.922 81.8475 446.658C80.7175 445.526 80.7175 443.827 81.8475 441.562C82.9774 440.43 84.6723 438.732 86.9322 436.467C90.322 435.334 93.7119 433.07 97.1017 429.673C101.621 427.408 110.661 422.312 124.22 414.386C137.78 405.328 147.384 398.533 153.034 394.004C159.814 389.474 166.028 384.945 171.678 380.415C177.328 375.886 182.977 371.357 188.627 366.827C194.277 361.166 198.797 356.071 202.187 351.541L205.576 346.446C198.797 346.446 192.582 346.446 186.932 346.446C182.413 346.446 172.243 347.578 156.424 349.843C140.605 352.108 129.87 353.806 124.22 354.938C119.701 356.071 116.311 357.203 114.051 358.335C111.791 358.335 108.966 358.901 105.576 360.034C103.316 360.034 101.621 360.034 100.492 360.034C99.3617 360.034 97.6667 360.034 95.4068 360.034C94.2769 360.034 93.1469 360.034 92.017 360.034C92.017 358.901 91.452 357.203 90.322 354.938C89.1921 351.541 88.0622 349.276 86.9322 348.145C85.8023 345.879 84.6723 344.181 83.5424 343.049C83.5424 340.784 83.5424 339.086 83.5424 337.953C83.5424 336.821 83.5424 335.122 83.5424 332.858C83.5424 330.592 83.5424 329.461 83.5424 329.461C84.6723 328.328 93.1469 327.762 108.966 327.762C124.785 327.762 136.65 327.762 144.559 327.762C152.469 326.629 160.379 326.063 168.288 326.063C177.328 324.932 182.977 324.365 185.238 324.365C187.497 324.365 189.192 324.365 190.323 324.365C192.582 323.233 195.971 322.666 200.491 322.666C205.011 322.666 208.402 322.666 210.661 322.666C214.051 322.666 218.006 322.666 222.525 322.666C227.046 322.666 229.305 322.666 229.305 322.666C230.435 322.666 231.565 322.1 232.695 320.968C233.825 319.836 234.955 318.703 236.085 317.571C238.345 315.307 239.475 313.041 239.475 310.777C239.475 308.512 238.345 306.814 236.085 305.681C234.955 303.416 233.26 301.718 231.001 300.586C229.87 299.453 229.305 298.887 229.305 298.887C229.305 298.887 221.961 299.453 207.271 300.586H185.238C178.458 306.248 173.938 310.211 171.678 312.475C169.418 314.74 167.723 316.438 166.593 317.571C165.463 317.571 163.768 317.571 161.509 317.571C160.379 317.571 158.119 317.571 154.729 317.571C152.469 317.571 150.209 317.571 147.949 317.571C146.819 316.438 145.689 314.74 144.559 312.475C144.559 310.211 143.994 308.512 142.864 307.379C141.735 305.115 140.605 284.734 139.475 246.233C139.475 206.602 139.475 186.219 139.475 185.087C140.605 183.955 141.17 183.389 141.17 183.389C142.299 183.389 143.429 183.389 144.559 183.389C145.689 182.256 146.819 181.69 147.949 181.69C149.079 181.69 150.774 181.69 153.034 181.69C156.424 181.69 158.119 181.69 158.119 181.69C158.119 180.558 156.989 177.16 154.729 171.498C152.469 164.705 149.644 158.477 146.254 152.815C143.994 146.021 142.864 141.492 142.864 139.227C142.864 136.962 143.994 132.999 146.254 127.337C149.644 121.676 151.904 117.146 153.034 113.749C155.294 110.352 156.424 107.522 156.424 105.257C157.554 102.992 158.684 99.5952 159.814 95.0658C160.944 90.5364 162.074 83.7424 163.203 74.6837C165.463 65.6249 167.158 61.0955 168.288 61.0955C169.418 59.9632 172.808 62.794 178.458 69.5881C185.238 76.3821 190.323 82.0439 193.712 86.5732C198.232 89.9703 200.491 92.2349 200.491 93.3673C201.621 93.3673 202.187 94.4996 202.187 96.7643C202.187 99.029 202.187 101.86 202.187 105.257C202.187 107.522 201.621 109.22 200.491 110.352C199.362 111.485 196.537 113.749 192.017 117.146C187.497 119.411 184.107 121.676 181.848 123.94C179.588 125.073 177.328 126.205 175.068 127.337C173.938 128.47 173.373 129.602 173.373 130.735C173.373 130.735 173.373 131.301 173.373 132.433C173.373 132.433 173.938 133.565 175.068 135.83C177.328 138.095 179.023 140.926 180.153 144.323C182.413 146.587 185.238 149.418 188.627 152.815C192.017 156.212 193.712 158.477 193.712 159.609C194.842 160.742 195.406 162.44 195.406 164.705C195.406 165.837 195.406 166.97 195.406 168.102C195.406 169.234 194.842 170.933 193.712 173.197C193.712 174.33 193.147 175.462 192.017 176.594C192.017 176.594 190.888 177.727 188.627 179.992C187.497 182.256 186.932 183.389 186.932 183.389C186.932 183.389 188.062 183.955 190.323 185.087C192.582 186.219 193.712 187.352 193.712 188.484C194.842 188.484 196.537 188.484 198.797 188.484C202.187 188.484 206.141 188.484 210.661 188.484C216.311 188.484 222.525 188.484 229.305 188.484C236.085 188.484 239.475 188.484 239.475 188.484C240.604 188.484 241.169 188.484 241.169 188.484C242.299 187.352 242.865 186.219 242.865 185.087C243.995 183.955 244.56 182.822 244.56 181.69C244.56 179.425 243.43 175.462 241.169 169.8C238.91 164.138 236.085 156.778 232.695 147.72C230.435 137.529 229.305 131.301 229.305 129.036C229.305 126.771 231.001 122.808 234.39 117.146C237.78 111.485 240.604 106.389 242.865 101.86C246.254 96.1981 248.515 91.6687 249.644 88.2718C250.774 84.8747 251.339 81.4777 251.339 78.0806C251.339 73.5513 251.339 69.5881 251.339 66.1911C251.339 61.6617 251.904 58.8308 253.034 57.6985C255.294 56.5662 257.554 56.5662 259.813 57.6985C262.074 58.8308 264.333 59.9632 266.594 61.0955C268.853 61.0955 272.808 65.6249 278.458 74.6837C285.238 82.61 288.627 87.7056 288.627 89.9702C288.627 91.1025 288.627 92.8011 288.627 95.0658C288.627 97.3305 287.497 100.161 285.238 103.558C282.977 105.823 279.588 108.654 275.068 112.051C271.679 115.448 268.853 118.279 266.594 120.544C265.463 121.676 263.768 123.374 261.509 125.639C260.379 126.771 259.813 127.337 259.813 127.337C259.813 127.337 259.813 127.904 259.813 129.036C259.813 129.036 260.379 130.168 261.509 132.433C263.768 134.698 266.029 136.962 268.288 139.227C270.548 141.492 272.808 143.756 275.068 146.021C277.327 148.286 279.023 150.551 280.153 152.815C282.412 155.08 283.543 156.778 283.543 157.911C284.673 159.043 285.803 160.742 286.932 163.006C288.062 165.271 288.062 167.535 286.932 169.8C286.932 172.065 285.803 174.33 283.543 176.594C282.412 178.859 280.153 181.69 276.762 185.087C274.503 187.352 273.373 189.051 273.373 190.182C273.373 190.182 274.503 190.748 276.762 191.881C279.023 191.881 280.718 192.447 281.847 193.58C284.108 193.58 290.887 193.014 302.187 191.881C313.486 190.748 319.701 190.182 320.831 190.182C321.96 189.051 323.09 188.484 324.221 188.484C325.351 187.352 325.351 186.785 324.221 186.785C324.221 185.653 322.525 181.123 319.136 173.197C316.876 164.138 314.616 157.345 312.357 152.815C311.226 147.154 310.096 142.058 308.966 137.529C307.837 131.867 307.272 129.036 307.272 129.036C307.272 127.904 307.272 126.771 307.272 125.639C307.272 124.507 307.837 123.374 308.966 122.242C310.096 119.977 311.226 118.279 312.357 117.146C314.616 114.882 316.876 112.051 319.136 108.654C322.525 104.125 325.351 99.029 327.61 93.3673C331 87.7056 332.695 82.61 332.695 78.0806C333.825 73.5513 334.39 70.1543 334.39 67.8896C335.521 65.6249 336.085 63.9264 336.085 62.794C337.215 60.5294 337.78 58.8308 337.78 57.6985ZM322.525 210.565C322.525 210.565 321.396 209.998 319.136 208.866C318.006 207.733 316.311 207.168 314.051 207.168C312.921 207.168 308.966 207.733 302.187 208.866C296.537 208.866 292.017 209.432 288.627 210.565C286.367 210.565 284.673 211.131 283.543 212.264C282.412 212.264 281.847 213.395 281.847 215.66C281.847 216.792 281.847 217.925 281.847 219.057C281.847 219.057 281.282 220.19 280.153 222.454C280.153 223.587 279.588 224.719 278.458 225.851C278.458 225.851 277.893 226.983 276.762 229.249C276.762 231.513 276.762 232.645 276.762 232.645C276.762 232.645 277.328 233.212 278.458 234.344C279.588 234.344 280.153 234.909 280.153 236.042C281.282 237.175 282.412 237.741 283.543 237.741C285.803 237.741 289.193 237.741 293.712 237.741C298.232 237.741 303.317 237.741 308.966 237.741C314.616 237.741 317.441 237.741 317.441 237.741C318.571 237.741 319.701 237.175 320.831 236.042C321.96 234.909 323.09 233.212 324.221 230.946C326.481 228.682 327.61 225.851 327.61 222.454C327.61 219.057 325.916 215.094 322.525 210.565ZM231.001 212.264C231.001 212.264 229.87 211.697 227.61 210.565C226.481 209.432 225.351 208.866 224.22 208.866C223.09 208.866 218.006 209.432 208.967 210.565C201.056 210.565 195.406 210.565 192.017 210.565C188.627 210.565 186.367 211.131 185.238 212.264C184.107 212.264 182.977 212.829 181.848 213.962C181.848 215.094 181.283 216.792 180.153 219.057C179.023 220.19 177.893 221.322 176.763 222.454C176.763 223.587 177.328 225.285 178.458 227.55C180.718 228.682 182.413 230.381 183.542 232.645C184.673 234.909 186.367 236.608 188.627 237.741C190.888 237.741 194.842 237.741 200.491 237.741C206.141 237.741 211.226 237.741 215.746 237.741C221.396 237.741 224.22 237.741 224.22 237.741C225.351 237.741 226.481 237.175 227.61 236.042C228.74 234.909 229.305 234.344 229.305 234.344C230.435 233.212 231.001 232.079 231.001 230.946C232.13 228.682 232.695 226.983 232.695 225.851C232.695 224.719 232.695 223.02 232.695 220.756C233.825 218.491 234.39 217.358 234.39 217.358C234.39 216.227 233.26 214.528 231.001 212.264ZM322.525 258.123C322.525 258.123 321.96 257.557 320.831 256.425C319.701 255.292 318.571 254.726 317.441 254.726C316.311 254.726 312.921 254.726 307.272 254.726C301.622 254.726 295.972 254.726 290.323 254.726C284.673 254.726 281.282 254.726 280.153 254.726C280.153 254.726 279.588 255.292 278.458 256.425C277.328 257.557 276.198 258.689 275.068 259.821C273.938 260.954 273.373 262.086 273.373 263.218C273.373 263.218 273.373 264.351 273.373 266.616C274.503 268.88 275.633 271.144 276.762 273.41C277.893 275.675 279.023 276.806 280.153 276.806C281.282 276.806 284.673 277.373 290.323 278.505C297.102 278.505 303.317 278.505 308.966 278.505C314.616 278.505 317.441 278.505 317.441 278.505C317.441 278.505 318.006 277.939 319.136 276.806C321.396 275.675 323.09 274.542 324.221 273.41C326.481 271.144 327.61 268.88 327.61 266.616C327.61 264.351 325.916 261.52 322.525 258.123ZM236.085 259.821C236.085 259.821 234.955 259.255 232.695 258.123C231.565 256.991 231.001 256.425 231.001 256.425C231.001 256.425 225.916 256.991 215.746 258.123C206.706 258.123 198.232 258.689 190.323 259.821C183.542 260.954 179.588 262.086 178.458 263.218C177.328 263.218 177.328 264.351 178.458 266.616C179.588 268.88 180.718 271.711 181.848 275.109C182.977 277.373 184.673 279.072 186.932 280.203C189.192 280.203 193.712 280.203 200.491 280.203C207.271 279.072 213.485 278.505 219.135 278.505C224.785 278.505 228.175 278.505 229.305 278.505C231.565 277.373 233.26 276.806 234.39 276.806C235.52 275.675 236.649 274.542 237.78 273.41C240.04 271.144 241.169 269.447 241.169 268.314C241.169 266.05 239.475 263.218 236.085 259.821ZM322.525 300.586C322.525 300.586 321.96 300.019 320.831 298.887C319.701 297.755 318.571 297.189 317.441 297.189C317.441 297.189 314.616 297.189 308.966 297.189C303.317 297.189 297.102 297.189 290.323 297.189C284.673 297.189 281.282 297.189 280.153 297.189C280.153 297.189 279.588 297.755 278.458 298.887C277.328 300.019 275.633 301.718 273.373 303.983C272.244 305.115 271.679 306.814 271.679 309.078C272.808 311.343 273.938 313.041 275.068 314.174C277.327 315.306 279.588 317.004 281.847 319.27C284.108 320.402 290.887 321.534 302.187 322.666C313.486 322.666 319.701 322.1 320.831 320.968C321.96 319.836 323.09 318.703 324.221 317.571C326.481 315.307 327.045 312.475 325.916 309.078C325.916 305.681 324.786 302.851 322.525 300.586Z" fill="#E40F0F"/>
</svg>
