<svg width="800" height="306" viewBox="0 0 800 306" fill="none" xmlns="http://www.w3.org/2000/svg">
<path d="M227.842 18.8364C227.842 18.8364 228.115 18.8364 228.662 18.8364C229.755 18.2905 230.848 18.0175 231.941 18.0175C233.034 18.0175 233.854 18.2905 234.401 18.8364C235.493 18.8364 236.587 19.3824 237.679 20.4744C239.319 21.0204 241.505 22.6583 244.238 25.3882C247.517 27.5721 249.157 28.9371 249.157 29.4831C249.703 30.0291 250.25 30.848 250.796 31.94C251.343 33.032 251.343 34.1239 250.796 35.2159C250.796 36.3079 250.25 37.3998 249.157 38.4918C248.064 39.5838 247.244 40.4028 246.697 40.9487C246.697 41.4947 246.424 42.3137 245.877 43.4057C245.331 43.9516 245.058 44.4977 245.058 45.0438C245.058 45.0438 244.785 45.3169 244.238 45.8625C244.238 46.4086 244.238 47.7733 244.238 49.9573C244.238 52.1412 244.238 54.5982 244.238 57.3282C244.238 60.0583 243.965 65.2448 243.418 72.8888C243.418 79.9867 243.145 84.6276 242.598 86.811C242.052 88.4494 240.686 90.0872 238.499 91.725C236.86 93.3633 235.493 94.7281 234.401 95.8198C233.854 96.3659 232.214 97.1851 229.482 98.2768C227.295 99.369 225.656 99.9146 224.563 99.9146C223.47 99.9146 222.377 99.9146 221.284 99.9146C220.737 99.9146 219.917 99.6421 218.824 99.096C218.278 98.0038 218.004 96.912 218.004 95.8198C218.004 94.7281 218.004 93.6359 218.004 92.5442C218.004 91.452 217.731 90.0872 217.185 88.4494C216.638 86.811 215.818 85.9924 214.725 85.9924C214.179 85.9924 213.359 85.7193 212.266 85.1732C211.173 84.6276 209.533 84.6276 207.347 85.1732C205.707 85.1732 204.341 85.4463 203.248 85.9924L201.609 87.6302C203.248 89.268 205.434 91.1789 208.167 93.3633C210.899 95.5468 212.266 96.912 212.266 97.4582C212.813 98.0038 212.539 99.369 211.446 101.553C210.353 103.191 209.533 104.556 208.986 105.648C208.44 106.739 208.167 107.559 208.167 108.105C208.167 108.105 208.167 108.923 208.167 110.562C208.167 111.653 208.44 113.564 208.986 116.294C209.533 119.024 209.806 120.662 209.806 121.208C210.353 121.208 211.446 120.662 213.086 119.571C215.271 117.932 216.911 116.84 218.004 116.294C219.098 115.748 221.284 113.564 224.563 109.743C228.388 105.921 230.848 103.191 231.941 101.553C233.034 99.9146 233.581 98.8229 233.581 98.2768C234.127 97.7312 234.401 97.4582 234.401 97.4582C234.947 97.4582 235.493 97.7312 236.04 98.2768C237.133 98.2768 238.226 98.5499 239.319 99.096C240.412 99.096 243.145 101.826 247.517 107.286C251.89 112.2 254.076 115.203 254.076 116.294C254.076 117.386 254.076 118.478 254.076 119.571C254.076 120.116 253.529 120.935 252.436 122.027C251.89 122.573 250.796 122.846 249.157 122.846C248.064 122.846 246.151 123.119 243.418 123.665C240.686 124.211 236.04 124.757 229.482 125.303C223.47 125.303 218.551 125.303 214.725 125.303L208.167 124.484C208.714 129.944 208.986 135.404 208.986 140.864C209.533 145.778 210.08 149.053 210.626 150.691C211.173 152.329 212.266 153.148 213.905 153.148C215.545 152.602 216.365 152.329 216.365 152.329C216.911 151.783 218.278 151.51 220.464 151.51C222.65 150.964 224.836 150.691 227.022 150.691C229.208 150.146 232.214 149.873 236.04 149.873C240.412 149.326 242.598 149.053 242.598 149.053C242.598 149.053 242.872 148.78 243.418 148.234C243.965 147.142 244.785 145.778 245.877 144.139C247.517 142.502 248.61 141.41 249.157 140.864C249.703 140.318 250.25 140.045 250.796 140.045C251.89 140.045 252.436 140.045 252.436 140.045C252.982 140.045 253.529 140.045 254.076 140.045C255.169 139.498 255.989 139.225 256.535 139.225C257.081 138.68 257.901 138.134 258.994 137.588C260.087 136.496 260.907 136.223 261.454 136.769C262.547 136.769 263.366 137.588 263.913 139.225C265.006 140.864 265.553 141.955 265.553 142.502C266.099 143.048 266.646 144.139 267.193 145.778C268.285 146.869 269.105 147.961 269.652 149.053C270.198 150.146 270.745 151.237 271.291 152.329C272.384 153.421 272.931 154.513 272.931 155.605C273.478 156.151 273.751 156.97 273.751 158.062C273.751 158.608 273.751 159.7 273.751 161.338C273.751 162.976 273.478 164.068 272.931 164.614C272.384 165.16 271.291 165.706 269.652 166.252C268.012 166.798 266.646 167.344 265.553 167.89C264.46 168.436 262.82 168.709 260.634 168.709C258.994 168.709 248.883 168.709 230.302 168.709H198.329C196.69 167.071 195.323 165.979 194.23 165.433C193.683 164.887 193.41 164.614 193.41 164.614C193.41 164.068 193.41 161.884 193.41 158.062C193.41 153.694 193.137 149.599 192.591 145.778C192.591 141.955 192.591 140.045 192.591 140.045C192.591 139.498 192.044 138.953 190.951 138.407C190.405 137.315 189.585 136.223 188.492 135.131C187.398 134.039 186.852 132.947 186.852 131.855C186.852 130.217 187.398 128.852 188.492 127.76C189.585 126.668 190.678 125.576 191.771 124.484C193.41 123.392 194.23 122.3 194.23 121.208C194.23 119.571 193.683 116.294 192.591 111.38C192.044 106.467 191.497 102.099 190.951 98.2768C190.405 94.4551 190.131 92.2711 190.131 91.725C190.131 91.1789 189.311 90.3602 187.672 89.268L185.212 86.811C176.468 87.3572 169.636 87.6302 164.718 87.6302C159.799 87.6302 157.612 87.6302 158.159 87.6302C159.252 87.0841 157.612 89.5411 153.24 95.0012L150.781 98.2768C152.967 101.007 154.606 103.191 155.7 104.829C157.339 105.921 158.159 107.013 158.159 108.105C158.159 108.65 157.613 109.743 156.519 111.38C155.973 112.473 155.426 113.564 154.88 114.657C154.333 115.203 154.06 115.475 154.06 115.475C154.06 115.475 154.06 115.748 154.06 116.294C154.606 116.84 155.153 117.386 155.7 117.932C156.793 118.478 157.612 118.751 158.159 118.751C159.252 118.205 160.891 117.114 163.078 115.475C165.264 113.291 167.45 111.107 169.636 108.923C171.822 106.739 173.189 105.648 173.735 105.648C174.828 105.648 175.648 107.013 176.194 109.743C177.288 112.473 178.108 114.93 178.654 117.114C179.747 119.297 180.02 121.208 179.474 122.846C179.474 123.938 178.927 125.03 177.834 126.122C177.288 126.668 176.741 127.214 176.194 127.76C175.648 128.306 175.102 128.579 174.555 128.579C174.555 128.579 173.735 128.579 172.095 128.579C171.003 128.579 169.363 128.579 167.177 128.579C165.537 128.033 163.078 128.033 159.799 128.579C156.519 129.125 154.606 129.671 154.06 130.217C154.06 130.763 153.787 131.309 153.24 131.855C152.694 132.401 152.42 134.039 152.42 136.769C152.967 138.953 153.24 140.318 153.24 140.864C153.787 140.864 154.333 141.137 154.88 141.682C155.426 142.229 155.7 142.502 155.7 142.502C156.246 142.502 156.793 142.502 157.339 142.502C158.432 141.955 159.525 141.682 160.619 141.682C161.711 141.137 162.804 140.591 163.898 140.045C165.537 138.953 166.63 138.134 167.177 137.588C168.27 137.042 169.09 136.496 169.636 135.95C170.729 135.404 171.822 135.131 172.915 135.131C174.555 134.585 175.648 134.858 176.194 135.95C176.741 136.496 177.288 137.042 177.834 137.588C178.927 138.134 179.201 138.953 178.654 140.045C178.654 141.137 178.381 142.229 177.834 143.321C177.288 143.866 176.741 144.412 176.194 144.959C176.194 144.959 175.648 145.505 174.555 146.596C173.462 147.142 172.369 147.689 171.276 148.234C170.729 148.78 169.909 149.326 168.816 149.873C167.723 150.418 166.357 151.237 164.718 152.329C163.078 152.875 161.711 153.694 160.619 154.786C160.072 155.332 159.252 155.878 158.159 156.424C157.612 156.97 156.793 157.789 155.7 158.881C154.606 159.427 153.787 159.973 153.24 160.519C152.694 160.519 152.147 160.792 151.601 161.338C151.054 161.338 149.961 161.884 148.321 162.976C146.682 164.068 145.042 165.16 143.402 166.252C141.763 167.344 138.757 169.255 134.385 171.985C130.559 174.168 128.373 175.261 127.826 175.261C127.826 175.261 126.46 174.168 123.727 171.985C121.541 169.255 118.809 166.525 115.529 163.795C112.797 161.065 111.43 159.154 111.43 158.062C111.977 156.97 114.436 155.878 118.809 154.786C123.181 153.148 126.187 152.056 127.826 151.51C130.013 150.964 131.106 150.691 131.106 150.691C131.652 150.146 132.198 149.599 132.745 149.053C133.292 148.507 134.112 147.142 135.205 144.959C136.844 142.775 137.664 138.953 137.664 133.493C138.211 127.487 137.937 122.3 136.844 117.932C135.751 113.564 134.658 109.743 133.565 106.467C133.018 103.191 132.745 101.28 132.745 100.734C132.745 99.6421 133.018 98.8229 133.565 98.2768C134.658 97.1851 135.205 96.639 135.205 96.639C135.751 96.0929 136.298 95.8198 136.844 95.8198C137.391 95.2742 137.664 95.0012 137.664 95.0012C138.211 95.0012 138.211 86.2654 137.664 68.794C137.664 51.3225 137.664 42.0407 137.664 40.9487C137.664 39.3108 137.391 37.9458 136.844 36.8539C136.844 35.2159 136.571 34.1239 136.024 33.578C136.024 33.032 135.478 32.213 134.385 31.121C133.292 30.0291 132.472 29.2101 131.926 28.6641C131.379 27.5721 130.832 26.4802 130.286 25.3882C130.286 23.7503 130.559 22.6583 131.106 22.1123C131.652 21.5664 131.926 21.2934 131.926 21.2934C132.472 20.7474 133.018 20.4744 133.565 20.4744C134.658 20.4744 136.571 20.4744 139.303 20.4744H145.862L154.06 26.2072L162.258 31.94C171.549 31.3941 177.288 31.121 179.474 31.121C182.207 31.121 185.212 31.121 188.492 31.121C191.771 31.121 194.23 31.121 195.87 31.121C197.51 31.121 198.876 31.121 199.969 31.121C201.608 31.121 203.248 31.121 204.887 31.121C207.074 31.121 208.44 31.121 208.986 31.121C210.08 31.121 211.446 31.121 213.086 31.121C215.271 31.121 216.638 30.848 217.185 30.3021C218.278 29.7561 219.371 28.6641 220.464 27.0262C222.103 24.8423 223.197 23.4773 223.743 22.9313C224.836 21.8393 225.656 21.0204 226.203 20.4744C227.295 19.3824 227.842 18.8364 227.842 18.8364ZM217.185 45.0438L215.545 43.4057C199.696 43.4057 187.125 43.4057 177.834 43.4057C169.09 43.4057 164.171 43.6787 163.078 44.2246C162.531 44.2246 161.985 44.4977 161.438 45.0438C160.891 45.5894 160.072 46.1355 158.979 46.6816C158.432 47.2277 158.159 48.0464 158.159 49.1386C158.705 50.2303 159.252 51.3225 159.799 52.4143C160.345 52.9604 160.891 53.5065 161.438 54.0526C161.985 54.5982 162.531 54.8712 163.078 54.8712C163.624 54.8712 164.991 54.8712 167.177 54.8712C169.909 54.8712 172.642 55.1443 175.375 55.6904C178.654 55.6904 183.573 55.4173 190.131 54.8712C196.69 54.3251 200.789 53.7795 202.428 53.2334C204.068 52.6873 205.434 52.4143 206.527 52.4143C208.167 51.8686 209.26 51.5956 209.806 51.5956C210.899 51.5956 211.446 52.4143 211.446 54.0526C211.993 55.1443 212.266 56.236 212.266 57.3282C212.813 58.4204 213.086 59.5122 213.086 60.6039C213.086 61.6961 212.539 62.5152 211.446 63.0609C210.899 63.0609 210.353 63.3339 209.806 63.88C209.806 63.88 208.167 63.88 204.887 63.88C202.155 63.88 198.056 63.88 192.591 63.88C187.672 63.88 180.84 64.1531 172.095 64.6992C163.351 64.6992 158.979 64.6992 158.979 64.6992C158.979 64.6992 158.979 65.7909 158.979 67.9748C158.979 69.6127 158.979 71.251 158.979 72.8888C158.979 74.5266 159.252 75.6188 159.799 76.1644C160.345 76.1644 162.258 76.1644 165.537 76.1644C169.363 76.1644 172.095 76.1644 173.735 76.1644C175.375 75.6188 177.834 75.3458 181.113 75.3458C184.939 74.7997 187.945 74.5266 190.131 74.5266C192.864 73.9805 195.597 73.7075 198.329 73.7075C201.062 73.1619 203.795 72.8888 206.527 72.8888C209.26 72.3427 210.899 72.0696 211.446 72.0696C211.993 72.0696 213.086 72.0696 214.725 72.0696C216.365 72.0696 217.458 71.7966 218.004 71.251C218.551 70.1588 218.824 68.2479 218.824 65.5178C219.371 62.2422 219.644 59.2391 219.644 56.5091C220.19 53.7795 220.464 51.8686 220.464 50.7764C220.464 49.1386 219.371 47.2277 217.185 45.0438ZM390.162 4.91387C390.162 4.91387 390.709 4.64087 391.802 4.09491C392.895 3.00294 394.262 2.72994 395.901 3.27595C397.541 3.27595 399.18 4.09491 400.82 5.73283C403.006 6.8248 404.372 7.64381 404.919 8.18977C406.012 8.73573 407.105 9.55474 408.198 10.6467C409.838 11.1927 410.931 11.7387 411.477 12.2846C412.57 12.2846 413.937 12.8306 415.576 13.9226C417.762 15.0146 418.855 16.1065 418.855 17.1985C419.402 17.7445 419.129 18.8364 418.036 20.4744C417.489 22.1123 416.942 23.2043 416.396 23.7503C416.396 24.2963 416.123 25.1152 415.576 26.2072C415.576 26.7532 415.576 27.0262 415.576 27.0262C415.576 27.0262 415.576 27.5721 415.576 28.6641C415.576 29.7561 416.123 31.3941 417.216 33.578C418.855 35.7619 420.768 38.2188 422.955 40.9487C425.14 43.1327 428.42 46.9547 432.792 52.4143C437.711 57.3282 443.176 61.423 449.188 64.6992C455.2 67.4287 462.305 69.6127 470.503 71.251C478.701 72.8888 484.439 74.2536 487.719 75.3458C491.544 75.8919 493.457 76.1644 493.457 76.1644C494.004 76.1644 494.277 76.7106 494.277 77.8028C494.824 78.3484 495.097 79.1675 495.097 80.2598C495.097 80.8054 494.55 81.3515 493.457 81.8976C492.911 82.4432 490.998 83.2624 487.719 84.3546C484.439 84.9002 481.98 85.4463 480.34 85.9924C479.248 85.9924 477.881 86.2654 476.241 86.811C474.602 87.3572 473.509 87.9033 472.962 88.4494C472.416 88.4494 471.596 88.7224 470.503 89.268C469.41 89.268 468.043 89.268 466.404 89.268C465.311 89.268 463.125 88.9955 459.846 88.4494C456.566 87.9033 453.561 87.3572 450.828 86.811C448.095 85.7193 445.909 84.9002 444.269 84.3546C442.629 83.2624 440.444 81.6245 437.711 79.4406C435.525 77.2567 433.339 75.3458 431.153 73.7075C428.966 71.524 427.873 70.4318 427.873 70.4318C427.873 70.4318 427.6 71.524 427.054 73.7075C427.054 75.8919 426.78 77.2567 426.234 77.8028C426.234 78.3484 425.96 78.8945 425.414 79.4406C425.414 79.4406 425.14 79.4406 424.594 79.4406C424.594 79.4406 423.501 79.7136 421.315 80.2598C419.675 80.8054 416.123 81.3515 410.657 81.8976C405.738 81.8976 400.547 82.1706 395.081 82.7162C390.162 82.7162 384.424 82.9893 377.865 83.5354C371.307 83.5354 367.755 83.5354 367.208 83.5354C366.661 83.5354 365.842 82.7162 364.749 81.0784C364.202 79.4406 363.656 78.3484 363.109 77.8028C363.109 77.2567 362.836 76.7106 362.289 76.1644C361.743 75.6188 361.47 75.3458 361.47 75.3458C361.47 75.3458 361.196 75.3458 360.65 75.3458C360.103 75.3458 359.01 75.8919 357.371 76.9836C356.277 78.0753 354.911 79.4406 353.271 81.0784C351.632 82.1706 350.266 83.2624 349.172 84.3546C348.079 85.4463 346.713 86.5385 345.073 87.6302C343.434 88.7224 341.248 89.8141 338.515 90.9064C336.329 91.9981 334.143 93.0903 331.957 94.182C329.77 95.2742 327.311 96.639 324.578 98.2768C322.393 99.369 320.753 100.188 319.66 100.734C319.113 101.28 318.02 102.099 316.38 103.191C314.741 103.737 313.101 104.283 311.461 104.829C310.369 104.829 309.549 104.556 309.002 104.01C308.456 103.464 307.909 102.918 307.362 102.372C306.816 101.28 306.816 100.461 307.362 99.9146C307.909 98.8229 309.822 97.4581 313.101 95.8198C316.38 93.6359 318.84 91.9981 320.479 90.9064C322.119 89.8141 323.759 88.7224 325.398 87.6302C327.584 85.9924 328.95 84.9002 329.497 84.3546C330.044 83.8085 330.59 83.5354 331.137 83.5354C332.23 82.9893 333.323 82.4432 334.416 81.8976C335.509 80.8054 336.329 79.9867 336.875 79.4406C337.968 78.8945 339.608 78.0753 341.794 76.9836C343.981 75.3458 347.259 72.3427 351.632 67.9748C356.551 63.607 360.103 60.0583 362.289 57.3282C364.475 54.5982 366.661 51.5956 368.847 48.3194C371.034 45.0438 373.22 41.7677 375.406 38.4918C378.139 34.67 380.325 31.3941 381.964 28.6641C383.604 25.9342 384.97 23.7503 386.063 22.1123C387.157 20.4744 387.703 19.3824 387.703 18.8364C388.249 17.7445 388.523 16.9255 388.523 16.3795C388.523 15.8335 388.249 15.5605 387.703 15.5605C387.703 15.0146 387.703 14.4686 387.703 13.9226C387.703 13.3766 387.43 13.1036 386.883 13.1036C386.883 12.5576 386.61 11.7387 386.063 10.6467C386.063 9.55474 386.337 8.46277 386.883 7.37081C387.43 6.27884 388.523 5.45983 390.162 4.91387ZM407.378 36.0349C407.378 36.0349 407.105 36.0349 406.558 36.0349C406.558 36.0349 406.285 36.0349 405.738 36.0349C405.738 35.4889 405.738 35.2159 405.738 35.2159C405.738 35.2159 405.466 35.2159 404.919 35.2159C404.919 35.2159 403.279 36.5809 400 39.3108C397.267 42.0407 392.622 46.4086 386.063 52.4143L368.028 69.6126C370.214 70.7049 371.58 71.524 372.127 72.0696C373.22 72.0696 374.313 72.0696 375.406 72.0696C376.499 72.0696 377.865 72.0696 379.505 72.0696C381.691 72.0696 383.877 72.0696 386.063 72.0696C388.249 71.524 392.075 70.9779 397.541 70.4318C403.006 69.8857 405.738 69.6126 405.738 69.6126C406.285 69.6126 406.558 69.6126 406.558 69.6126C406.558 69.6126 406.832 69.3396 407.378 68.794C407.925 68.2479 408.471 67.7018 409.018 67.1562C409.565 66.6101 410.111 66.337 410.657 66.337C411.204 65.7909 411.751 65.2448 412.297 64.6992C413.39 64.1531 413.937 63.88 413.937 63.88C414.483 63.88 415.03 63.88 415.576 63.88C416.669 63.88 417.489 63.88 418.036 63.88C418.582 63.3339 418.855 63.0609 418.855 63.0609C418.855 62.5152 418.855 62.2422 418.855 62.2422C418.855 61.6961 418.582 61.15 418.036 60.6039C418.036 60.0583 417.762 59.5122 417.216 58.9661C416.669 58.4204 416.123 57.8743 415.576 57.3282C415.576 56.236 415.03 54.8712 413.937 53.2334C413.39 51.0495 412.57 49.4117 411.477 48.3194C410.931 46.6816 410.384 45.0438 409.838 43.4057C409.291 41.7677 408.745 40.4028 408.198 39.3108C407.651 37.6728 407.378 36.5809 407.378 36.0349ZM438.53 93.3633C438.53 93.3633 439.35 92.8172 440.99 91.725C443.176 90.0872 444.543 89.268 445.089 89.268C446.182 89.268 447.822 89.8141 450.008 90.9064C452.194 91.9981 454.653 93.3633 457.386 95.0012C460.118 96.639 461.758 98.2768 462.305 99.9146C462.851 101.553 461.485 104.01 458.206 107.286L455.746 110.562C455.746 124.757 455.746 135.131 455.746 141.682C455.746 147.689 455.746 151.51 455.746 153.148C455.746 154.24 455.473 156.151 454.927 158.881C454.38 161.065 453.833 163.795 453.287 167.071C452.741 170.347 452.194 172.257 451.647 172.804C451.647 173.35 450.828 174.441 449.188 176.08C447.548 177.718 446.182 179.082 445.089 180.175C443.996 181.266 443.176 181.812 442.629 181.812C442.629 182.358 442.083 182.631 440.99 182.631C440.444 182.631 439.897 182.631 439.35 182.631C438.804 182.631 437.984 182.358 436.891 181.812C436.344 181.812 435.798 181.812 435.251 181.812C435.251 181.812 434.705 181.539 433.612 180.993C433.065 180.448 432.245 179.082 431.153 176.898C430.059 174.714 429.513 173.35 429.513 172.804C429.513 171.712 429.513 170.893 429.513 170.347C429.513 169.255 429.513 168.709 429.513 168.709C430.059 168.163 430.606 167.617 431.153 167.071C432.245 166.525 433.339 165.706 434.432 164.614C436.071 163.522 436.891 162.703 436.891 162.157C437.438 161.611 437.711 159.154 437.711 154.786C438.257 149.873 438.53 145.505 438.53 141.682C439.077 137.315 439.35 135.131 439.35 135.131C439.35 135.131 439.077 134.858 438.53 134.312C437.984 133.22 437.438 132.401 436.891 131.855C436.344 131.309 435.798 131.036 435.251 131.036C435.251 131.036 434.432 131.036 432.792 131.036C431.153 131.036 428.966 131.309 426.234 131.855C423.501 132.401 422.135 132.674 422.135 132.674C422.135 132.128 421.861 135.404 421.315 142.502C421.315 149.599 421.041 156.424 420.495 162.976C420.495 168.982 420.222 172.53 419.675 173.623C419.675 174.168 419.129 174.714 418.036 175.261C416.942 175.807 415.85 176.08 414.756 176.08C413.663 176.08 412.844 175.807 412.297 175.261C411.751 175.261 410.931 174.714 409.838 173.623C409.291 172.53 408.745 171.439 408.198 170.347C407.651 169.255 407.378 168.436 407.378 167.89C407.378 167.344 407.105 164.887 406.558 160.519C406.558 155.605 406.285 150.964 405.738 146.596C405.738 141.682 405.738 138.953 405.738 138.407C405.738 137.315 405.466 136.496 404.919 135.95C404.919 135.404 404.372 134.858 403.279 134.312C402.733 133.22 401.639 132.674 400 132.674C398.361 132.674 396.994 133.22 395.901 134.312C395.354 135.404 394.808 136.223 394.262 136.769C393.715 137.315 393.442 137.588 393.442 137.588C393.442 137.588 393.168 143.866 392.622 156.424V174.441C390.982 176.08 389.616 177.444 388.523 178.536C387.43 180.175 386.063 180.721 384.424 180.175C382.784 180.175 381.418 179.355 380.325 177.718C379.778 176.08 379.232 174.987 378.685 174.441C378.685 173.35 378.685 172.257 378.685 171.166C378.685 170.074 378.412 167.344 377.865 162.976C377.865 158.062 377.865 153.148 377.865 148.234C377.865 142.775 377.865 139.772 377.865 139.225C377.865 138.134 377.592 137.315 377.045 136.769C376.499 136.223 375.679 135.404 374.586 134.312C374.04 133.22 372.673 132.674 370.487 132.674C368.847 132.674 367.481 133.22 366.388 134.312C365.842 135.404 365.295 136.223 364.749 136.769C364.202 137.315 363.929 137.861 363.929 138.407C363.929 138.407 363.656 141.682 363.109 148.234C363.109 154.24 362.836 160.246 362.289 166.252C362.289 172.257 362.289 175.534 362.289 176.08C362.289 177.171 362.016 178.264 361.47 179.355C360.923 180.448 360.376 181.266 359.83 181.812C359.83 182.358 359.556 182.904 359.01 183.45C358.463 184.542 357.917 185.088 357.371 185.088C356.824 185.634 356.004 186.18 354.911 186.726C354.365 187.272 353.271 187.545 351.632 187.545C349.992 188.091 348.899 187.818 348.353 186.726C347.806 186.18 347.259 185.634 346.713 185.088C346.167 185.088 345.893 183.45 345.893 180.175C345.893 177.444 345.893 171.439 345.893 162.157C346.439 152.329 346.713 145.505 346.713 141.682C347.259 137.315 347.533 132.947 347.533 128.579C347.533 124.211 347.259 121.481 346.713 120.389C346.713 118.751 346.713 116.84 346.713 114.657C346.713 111.927 346.713 110.562 346.713 110.562C346.713 110.562 346.167 110.016 345.073 108.923C343.981 107.832 342.887 106.739 341.794 105.648C340.701 104.556 340.154 103.737 340.154 103.191C340.154 102.099 340.701 101.007 341.794 99.9146C342.887 98.8229 343.981 97.7312 345.073 96.639C346.167 95.5468 347.259 95.0012 348.353 95.0012C349.992 95.0012 351.632 95.5468 353.271 96.639C354.911 97.1851 356.277 97.7312 357.371 98.2768C358.463 98.8229 359.01 99.096 359.01 99.096C359.556 99.096 363.656 99.096 371.307 99.096C379.505 99.096 388.523 99.096 398.361 99.096C408.745 99.096 416.396 99.096 421.315 99.096C426.78 98.5499 430.059 98.0038 431.153 97.4582C432.245 96.912 432.792 96.639 432.792 96.639C433.339 96.639 434.158 96.3659 435.251 95.8198C436.344 94.7281 437.438 93.909 438.53 93.3633ZM436.071 108.105C436.071 108.105 435.798 108.105 435.251 108.105C435.251 107.559 434.978 107.286 434.432 107.286C433.885 106.739 433.065 106.467 431.972 106.467C430.879 106.467 429.24 106.467 427.054 106.467C424.867 106.467 423.228 107.013 422.135 108.105C421.588 108.65 421.315 110.016 421.315 112.2C421.315 113.837 421.315 115.748 421.315 117.932C421.315 120.116 421.315 121.481 421.315 122.027C421.861 122.027 423.228 122.027 425.414 122.027C428.146 121.481 430.879 121.208 433.612 121.208C436.344 121.208 437.984 121.208 438.53 121.208C439.077 120.662 439.077 120.116 438.53 119.571C438.53 119.024 438.53 118.751 438.53 118.751C438.53 118.205 438.53 117.659 438.53 117.114C438.53 116.021 438.257 115.203 437.711 114.657C437.711 114.11 437.711 113.564 437.711 113.018C437.711 111.927 437.438 111.107 436.891 110.562C436.891 109.47 436.618 108.65 436.071 108.105ZM404.099 108.923C404.099 108.923 403.279 108.378 401.64 107.286C400.547 105.648 399.18 105.648 397.541 107.286C395.901 108.378 394.808 110.289 394.262 113.018C393.715 115.203 393.442 117.114 393.442 118.751C393.442 119.843 393.442 120.662 393.442 121.208C393.442 121.208 393.715 121.481 394.262 122.027C394.808 122.573 395.354 123.119 395.901 123.665C396.448 124.211 397.267 124.484 398.361 124.484C400 124.484 401.366 124.211 402.459 123.665C403.552 122.573 404.646 121.754 405.738 121.208C406.832 120.662 407.378 119.297 407.378 117.114C407.378 114.384 406.285 111.653 404.099 108.923ZM374.586 109.743C374.586 109.743 374.04 109.47 372.946 108.923C372.4 108.378 371.58 108.105 370.487 108.105C369.394 107.559 368.574 107.832 368.028 108.923C367.481 109.47 366.935 110.016 366.388 110.562C366.388 110.562 366.115 111.107 365.569 112.2C365.022 112.746 364.475 113.564 363.929 114.657C363.929 115.203 363.656 116.294 363.109 117.932C362.562 119.024 362.289 119.571 362.289 119.571C362.289 119.571 362.562 120.116 363.109 121.208C363.656 121.754 364.202 122.573 364.749 123.665C365.295 124.757 365.842 125.576 366.388 126.122C367.481 126.668 368.574 126.941 369.667 126.941C371.307 126.395 372.673 126.122 373.766 126.122C375.406 125.576 376.499 125.03 377.045 124.484C377.592 123.938 377.865 123.119 377.865 122.027C377.865 120.389 377.865 119.024 377.865 117.932C377.865 116.294 377.592 114.93 377.045 113.837C377.045 112.746 376.226 111.38 374.586 109.743ZM650.858 0.819011C651.403 0.819011 651.953 0.819011 652.497 0.819011C653.047 0.273004 653.317 0 653.317 0C653.866 0 654.411 0 654.956 0C656.05 0 656.87 0.273004 657.419 0.819011C657.964 0.819011 659.058 1.91098 660.697 4.09491C662.336 5.73283 664.795 8.46277 668.072 12.2846C671.9 15.5605 673.539 17.4715 672.994 18.0175C672.994 18.5634 670.806 20.2014 666.433 22.9313C662.611 25.1152 659.058 27.2992 655.78 29.4831C652.497 31.1211 650.314 32.213 649.219 32.759C648.675 33.305 648.675 34.1239 649.219 35.2159C649.764 35.7619 650.039 36.3079 650.039 36.8539C650.039 36.8539 650.583 37.3998 651.678 38.4918C652.772 39.0378 653.866 39.5838 654.956 40.1298C656.6 40.6757 658.508 41.7677 660.697 43.4057C662.881 44.4977 664.25 45.3169 664.795 45.8625C665.344 46.4086 665.614 47.7733 665.614 49.9573C665.614 51.5956 665.614 52.6873 665.614 53.2334C665.614 53.7795 665.344 54.5982 664.795 55.6904C664.795 56.7821 664.525 57.6013 663.975 58.1474L663.156 60.6039C665.889 63.88 668.073 66.337 669.716 67.9748C671.9 69.6127 672.994 70.9779 672.994 72.0696C673.539 72.6157 673.269 73.4349 672.175 74.5266C671.081 75.6188 669.986 76.9836 668.892 78.6214C667.803 79.7136 667.253 80.5323 667.253 81.0784C667.253 81.6245 666.983 84.9002 666.433 90.9064C666.433 96.3659 666.164 102.372 665.614 108.923C665.614 114.93 665.344 118.478 664.795 119.571C664.795 120.662 664.25 121.754 663.156 122.846C662.061 123.938 661.242 124.757 660.697 125.303C660.147 125.849 659.878 126.395 659.878 126.941C660.422 126.941 660.972 126.941 661.517 126.941C662.061 126.941 662.611 127.214 663.156 127.76C663.7 127.76 664.25 127.76 664.795 127.76C665.344 127.76 665.889 127.76 666.433 127.76C666.983 127.214 668.073 126.668 669.716 126.122C671.355 125.03 673.539 123.665 676.272 122.027C679.006 119.843 680.645 118.751 681.189 118.751C682.284 118.751 683.653 119.843 685.292 122.027C686.931 123.665 688.295 125.303 689.389 126.941C691.028 128.579 692.397 130.49 693.487 132.674C695.126 134.312 695.95 135.404 695.95 135.95C695.95 136.496 695.95 137.588 695.95 139.225C695.95 140.318 695.126 141.137 693.487 141.682C691.848 141.682 688.025 141.41 682.014 140.864C676.547 139.772 671.355 138.953 666.433 138.407C662.061 137.861 657.144 137.588 651.678 137.588C646.211 137.042 642.658 137.042 641.019 137.588L639.38 138.407C641.019 139.498 642.658 140.864 644.302 142.502C645.941 144.139 650.314 146.323 657.419 149.053C664.525 151.783 670.806 153.694 676.272 154.786C681.739 155.878 685.292 156.697 686.931 157.243C688.57 157.243 689.934 157.516 691.028 158.062C692.667 158.608 693.487 158.881 693.487 158.881C694.036 158.881 694.306 159.154 694.306 159.7C694.856 159.7 695.126 159.973 695.126 160.519C695.126 160.519 695.126 160.792 695.126 161.338C695.126 161.884 695.126 162.43 695.126 162.976C695.126 163.522 694.856 164.068 694.306 164.614C693.761 164.614 692.667 165.16 691.028 166.252C689.389 166.798 688.025 167.344 686.931 167.89C685.836 168.436 684.742 169.255 683.653 170.347C682.558 170.893 681.739 171.439 681.189 171.985C680.645 171.985 679.006 173.077 676.272 175.261C674.089 176.898 671.9 177.718 669.716 177.718C667.528 178.264 665.614 177.991 663.975 176.898C662.881 175.807 662.061 174.987 661.517 174.441C661.517 173.896 660.972 173.35 659.878 172.804C658.783 172.257 657.964 171.985 657.419 171.985C656.87 171.439 655.78 170.893 654.136 170.347C652.497 169.8 649.219 167.617 644.302 163.795C639.38 159.973 636.102 157.243 634.463 155.605C633.369 153.967 632.55 152.875 632.005 152.329C631.455 151.783 630.636 150.964 629.547 149.873C628.997 148.78 628.452 147.961 627.903 147.416C627.358 146.323 626.813 145.505 626.264 144.959C626.264 144.412 625.994 143.593 625.444 142.502C624.899 141.41 624.35 140.591 623.805 140.045L622.166 138.407C621.072 140.045 620.252 141.137 619.708 141.682C619.708 142.229 619.708 143.321 619.708 144.959C619.708 146.596 619.708 149.873 619.708 154.786C619.708 159.154 619.433 163.249 618.888 167.071C618.888 170.347 618.888 173.623 618.888 176.898C618.888 180.175 618.613 182.085 618.069 182.631C618.069 183.177 617.794 184.542 617.249 186.726C616.7 188.91 615.061 190.548 612.327 191.64C610.144 193.278 608.23 193.278 606.591 191.64C605.497 190.548 604.402 189.456 603.313 188.364C602.763 187.818 602.488 185.907 602.488 182.631C602.488 179.355 602.488 175.534 602.488 171.166C603.038 166.252 603.313 162.157 603.313 158.881C603.858 155.605 604.132 153.421 604.132 152.329C604.132 151.237 603.858 150.418 603.313 149.873C603.313 149.326 603.038 149.053 602.488 149.053C602.488 148.507 602.219 148.234 601.669 148.234C601.669 147.689 601.669 147.416 601.669 147.416C601.669 147.416 601.399 147.416 600.849 147.416C600.849 147.416 600.305 147.689 599.211 148.234C598.666 148.78 597.846 149.599 596.752 150.691C596.207 151.237 594.838 152.602 592.655 154.786C591.016 156.424 585.824 160.246 577.079 166.252C568.879 172.257 563.413 175.807 560.68 176.898C557.946 178.536 554.943 180.175 551.665 181.812C548.932 183.45 544.83 185.361 539.368 187.545C534.446 189.729 531.713 190.821 531.168 190.821C530.623 190.821 530.074 190.821 529.529 190.821C529.529 190.821 529.254 190.548 528.71 190.002C528.71 190.002 528.435 190.002 527.89 190.002C527.89 190.002 527.615 189.456 527.071 188.364C526.521 187.818 526.521 186.999 527.071 185.907C527.615 185.361 528.435 184.542 529.529 183.45C531.168 182.904 532.807 181.812 534.446 180.175C536.635 179.082 541.007 176.625 547.563 172.804C554.124 168.436 558.766 165.16 561.499 162.976C564.782 160.792 567.785 158.608 570.518 156.424C573.252 154.24 575.985 152.056 578.718 149.873C581.447 147.142 583.635 144.685 585.274 142.502L586.913 140.045C583.635 140.045 580.627 140.045 577.899 140.045C575.71 140.045 570.793 140.591 563.138 141.682C555.488 142.775 550.296 143.593 547.563 144.139C545.379 144.685 543.74 145.232 542.646 145.778C541.552 145.778 540.187 146.05 538.548 146.596C537.454 146.596 536.635 146.596 536.085 146.596C535.54 146.596 534.721 146.596 533.627 146.596C533.082 146.596 532.532 146.596 531.988 146.596C531.988 146.05 531.713 145.232 531.168 144.139C530.623 142.502 530.074 141.41 529.529 140.864C528.979 139.772 528.435 138.953 527.89 138.407C527.89 137.315 527.89 136.496 527.89 135.95C527.89 135.404 527.89 134.585 527.89 133.493C527.89 132.401 527.89 131.855 527.89 131.855C528.435 131.309 532.532 131.036 540.187 131.036C547.838 131.036 553.574 131.036 557.402 131.036C561.229 130.49 565.052 130.217 568.879 130.217C573.252 129.671 575.985 129.398 577.079 129.398C578.169 129.398 578.988 129.398 579.538 129.398C580.627 128.852 582.271 128.579 584.455 128.579C586.643 128.579 588.282 128.579 589.372 128.579C591.016 128.579 592.924 128.579 595.113 128.579C597.297 128.579 598.391 128.579 598.391 128.579C598.936 128.579 599.485 128.306 600.03 127.76C600.58 127.214 601.124 126.668 601.669 126.122C602.763 125.03 603.313 123.938 603.313 122.846C603.313 121.754 602.763 120.935 601.669 120.389C601.124 119.297 600.305 118.478 599.211 117.932C598.666 117.386 598.391 117.114 598.391 117.114C598.391 117.114 594.838 117.386 587.733 117.932H577.079C573.796 120.662 571.613 122.573 570.518 123.665C569.424 124.757 568.605 125.576 568.06 126.122C567.51 126.122 566.691 126.122 565.602 126.122C565.052 126.122 563.958 126.122 562.319 126.122C561.229 126.122 560.135 126.122 559.041 126.122C558.496 125.576 557.946 124.757 557.402 123.665C557.402 122.573 557.127 121.754 556.582 121.208C556.038 120.116 555.488 110.289 554.943 91.725C554.943 72.6157 554.943 62.7878 554.943 62.2422C555.488 61.6961 555.763 61.423 555.763 61.423C556.307 61.423 556.857 61.423 557.402 61.423C557.946 60.8769 558.496 60.6039 559.041 60.6039C559.59 60.6039 560.41 60.6039 561.499 60.6039C563.138 60.6039 563.958 60.6039 563.958 60.6039C563.958 60.0583 563.413 58.4204 562.319 55.6904C561.229 52.4143 559.86 49.4117 558.221 46.6816C557.127 43.4057 556.582 41.2217 556.582 40.1298C556.582 39.0378 557.127 37.1269 558.221 34.3969C559.86 31.667 560.954 29.4831 561.499 27.8452C562.593 26.2072 563.138 24.8423 563.138 23.7503C563.688 22.6583 564.232 21.0204 564.782 18.8364C565.327 16.6525 565.871 13.3766 566.421 9.00873C567.51 4.64087 568.335 2.45694 568.879 2.45694C569.424 1.91098 571.063 3.27595 573.796 6.55179C577.079 9.82774 579.538 12.5576 581.177 14.7416C583.36 16.3795 584.455 17.4715 584.455 18.0175C584.999 18.0175 585.274 18.5634 585.274 19.6554C585.274 20.7474 585.274 22.1123 585.274 23.7503C585.274 24.8423 584.999 25.6612 584.455 26.2072C583.91 26.7532 582.541 27.8452 580.357 29.4831C578.169 30.5751 576.53 31.667 575.435 32.759C574.346 33.305 573.252 33.851 572.157 34.3969C571.613 34.9429 571.338 35.4889 571.338 36.0349C571.338 36.0349 571.338 36.3079 571.338 36.8539C571.338 36.8539 571.613 37.3998 572.157 38.4918C573.252 39.5838 574.071 40.9487 574.616 42.5867C575.71 43.6787 577.079 45.0438 578.718 46.6816C580.357 48.3194 581.177 49.4117 581.177 49.9573C581.721 50.5034 581.996 51.3225 581.996 52.4143C581.996 52.9604 581.996 53.5065 581.996 54.0526C581.996 54.5982 581.721 55.4174 581.177 56.5091C581.177 57.0552 580.902 57.6013 580.357 58.1474C580.357 58.1474 579.808 58.693 578.718 59.7852C578.169 60.8769 577.899 61.423 577.899 61.423C577.899 61.423 578.444 61.6961 579.538 62.2422C580.627 62.7878 581.177 63.3339 581.177 63.88C581.721 63.88 582.541 63.88 583.635 63.88C585.274 63.88 587.188 63.88 589.372 63.88C592.105 63.88 595.113 63.88 598.391 63.88C601.669 63.88 603.313 63.88 603.313 63.88C603.858 63.88 604.132 63.88 604.132 63.88C604.677 63.3339 604.952 62.7878 604.952 62.2422C605.497 61.6961 605.771 61.15 605.771 60.6039C605.771 59.5122 605.222 57.6013 604.132 54.8712C603.038 52.1412 601.669 48.5925 600.03 44.2246C598.936 39.3108 598.391 36.3079 598.391 35.2159C598.391 34.1239 599.211 32.213 600.849 29.4831C602.488 26.7532 603.858 24.2962 604.952 22.1123C606.591 19.3824 607.68 17.1985 608.23 15.5605C608.775 13.9226 609.049 12.2846 609.049 10.6467C609.049 8.46277 609.049 6.55179 609.049 4.91387C609.049 2.72994 609.324 1.36497 609.869 0.819011C610.963 0.273004 612.058 0.273004 613.147 0.819011C614.241 1.36497 615.335 1.91098 616.425 2.45694C617.519 2.45694 619.433 4.64087 622.166 9.00873C625.444 12.8306 627.083 15.2875 627.083 16.3795C627.083 16.9255 627.083 17.7445 627.083 18.8364C627.083 19.9284 626.538 21.2934 625.444 22.9313C624.35 24.0233 622.711 25.3882 620.527 27.0262C618.888 28.6641 617.519 30.0291 616.425 31.121C615.88 31.667 615.061 32.486 613.966 33.578C613.422 34.1239 613.147 34.3969 613.147 34.3969C613.147 34.3969 613.147 34.67 613.147 35.2159C613.147 35.2159 613.422 35.7619 613.966 36.8539C615.061 37.9458 616.155 39.0378 617.249 40.1298C618.339 41.2217 619.433 42.3137 620.527 43.4057C621.622 44.4977 622.441 45.5894 622.986 46.6816C624.08 47.7733 624.625 48.5925 624.625 49.1386C625.169 49.6842 625.719 50.5034 626.264 51.5956C626.813 52.6873 626.813 53.7795 626.264 54.8712C626.264 55.9635 625.719 57.0552 624.625 58.1474C624.08 59.2391 622.986 60.6039 621.347 62.2422C620.252 63.3339 619.708 64.1531 619.708 64.6992C619.708 64.6992 620.252 64.9722 621.347 65.5178C622.441 65.5178 623.261 65.7909 623.805 66.337C624.899 66.337 628.177 66.064 633.644 65.5178C639.111 64.9722 642.114 64.6992 642.658 64.6992C643.208 64.1531 643.753 63.88 644.302 63.88C644.847 63.3339 644.847 63.0609 644.302 63.0609C644.302 62.5152 643.483 60.3313 641.839 56.5091C640.75 52.1412 639.655 48.8656 638.561 46.6816C638.016 43.9516 637.467 41.4947 636.922 39.3108C636.377 36.5809 636.102 35.2159 636.102 35.2159C636.102 34.67 636.102 34.1239 636.102 33.578C636.102 33.032 636.377 32.486 636.922 31.94C637.467 30.848 638.016 30.0291 638.561 29.4831C639.655 28.3911 640.75 27.0262 641.839 25.3882C643.483 23.2043 644.847 20.7474 645.941 18.0175C647.58 15.2875 648.4 12.8306 648.4 10.6467C648.944 8.46277 649.219 6.8248 649.219 5.73283C649.764 4.64087 650.039 3.8219 650.039 3.27595C650.583 2.18393 650.858 1.36497 650.858 0.819011ZM643.483 74.5266C643.483 74.5266 642.933 74.2536 641.839 73.7075C641.294 73.1619 640.475 72.8888 639.38 72.8888C638.836 72.8888 636.922 73.1619 633.644 73.7075C630.911 73.7075 628.722 73.9805 627.083 74.5266C625.994 74.5266 625.169 74.7997 624.625 75.3458C624.08 75.3458 623.805 75.8919 623.805 76.9836C623.805 77.5297 623.805 78.0753 623.805 78.6214C623.805 78.6214 623.53 79.1675 622.986 80.2598C622.986 80.8054 622.711 81.3515 622.166 81.8976C622.166 81.8976 621.891 82.4432 621.347 83.5354C621.347 84.6276 621.347 85.1732 621.347 85.1732C621.347 85.1732 621.622 85.4463 622.166 85.9924C622.711 85.9924 622.986 86.2654 622.986 86.811C623.53 87.3572 624.08 87.6302 624.625 87.6302C625.719 87.6302 627.358 87.6302 629.547 87.6302C631.73 87.6302 634.189 87.6302 636.922 87.6302C639.655 87.6302 641.019 87.6302 641.019 87.6302C641.569 87.6302 642.114 87.3572 642.658 86.811C643.208 86.2654 643.753 85.4463 644.302 84.3546C645.392 83.2624 645.941 81.8976 645.941 80.2598C645.941 78.6214 645.122 76.7106 643.483 74.5266ZM599.211 75.3458C599.211 75.3458 598.666 75.0727 597.572 74.5266C597.027 73.9805 596.477 73.7075 595.933 73.7075C595.388 73.7075 592.924 73.9805 588.552 74.5266C584.73 74.5266 581.996 74.5266 580.357 74.5266C578.718 74.5266 577.624 74.7997 577.079 75.3458C576.53 75.3458 575.985 75.6188 575.435 76.1644C575.435 76.7106 575.166 77.5297 574.616 78.6214C574.071 79.1675 573.527 79.7136 572.977 80.2598C572.977 80.8054 573.252 81.6245 573.796 82.7162C574.891 83.2623 575.71 84.0815 576.255 85.1732C576.805 86.2654 577.624 87.0841 578.718 87.6302C579.808 87.6302 581.721 87.6302 584.455 87.6302C587.188 87.6302 589.647 87.6302 591.835 87.6302C594.568 87.6302 595.933 87.6302 595.933 87.6302C596.477 87.6302 597.027 87.3572 597.572 86.811C598.116 86.2654 598.391 85.9924 598.391 85.9924C598.936 85.4463 599.211 84.9002 599.211 84.3546C599.76 83.2624 600.03 82.4432 600.03 81.8976C600.03 81.3515 600.03 80.5323 600.03 79.4406C600.58 78.3484 600.849 77.8028 600.849 77.8028C600.849 77.2567 600.305 76.4375 599.211 75.3458ZM643.483 97.4582C643.483 97.4582 643.208 97.1851 642.658 96.639C642.114 96.0929 641.569 95.8198 641.019 95.8198C640.475 95.8198 638.836 95.8198 636.102 95.8198C633.369 95.8198 630.636 95.8198 627.903 95.8198C625.169 95.8198 623.53 95.8198 622.986 95.8198C622.986 95.8198 622.711 96.0929 622.166 96.639C621.622 97.1851 621.072 97.7312 620.527 98.2768C619.978 98.8229 619.708 99.369 619.708 99.9146C619.708 99.9146 619.708 100.461 619.708 101.553C620.252 102.645 620.802 103.737 621.347 104.829C621.891 105.921 622.441 106.467 622.986 106.467C623.53 106.467 625.169 106.739 627.903 107.286C631.186 107.286 634.189 107.286 636.922 107.286C639.655 107.286 641.019 107.286 641.019 107.286C641.019 107.286 641.294 107.013 641.839 106.467C642.933 105.921 643.753 105.375 644.302 104.829C645.392 103.737 645.941 102.645 645.941 101.553C645.941 100.461 645.122 99.096 643.483 97.4582ZM601.669 98.2768C601.669 98.2768 601.124 98.0038 600.03 97.4582C599.485 96.912 599.211 96.639 599.211 96.639C599.211 96.639 596.752 96.912 591.835 97.4582C587.463 97.4582 583.36 97.7312 579.538 98.2768C576.255 98.8229 574.346 99.369 573.796 99.9146C573.252 99.9146 573.252 100.461 573.796 101.553C574.346 102.645 574.891 104.01 575.435 105.648C575.985 106.739 576.805 107.559 577.899 108.105C578.988 108.105 581.177 108.105 584.455 108.105C587.733 107.559 590.741 107.286 593.474 107.286C596.207 107.286 597.846 107.286 598.391 107.286C599.485 106.739 600.305 106.467 600.849 106.467C601.399 105.921 601.944 105.375 602.488 104.829C603.583 103.737 604.132 102.918 604.132 102.372C604.132 101.28 603.313 99.9146 601.669 98.2768ZM643.483 117.932C643.483 117.932 643.208 117.659 642.658 117.114C642.114 116.567 641.569 116.294 641.019 116.294C641.019 116.294 639.655 116.294 636.922 116.294C634.189 116.294 631.186 116.294 627.903 116.294C625.169 116.294 623.53 116.294 622.986 116.294C622.986 116.294 622.711 116.567 622.166 117.114C621.622 117.659 620.802 118.478 619.708 119.571C619.158 120.116 618.888 120.935 618.888 122.027C619.433 123.119 619.978 123.938 620.527 124.484C621.622 125.03 622.711 125.849 623.805 126.941C624.899 127.487 628.177 128.033 633.644 128.579C639.111 128.579 642.114 128.306 642.658 127.76C643.208 127.214 643.753 126.668 644.302 126.122C645.392 125.03 645.667 123.665 645.122 122.027C645.122 120.389 644.572 119.024 643.483 117.932Z" fill="#E40F0F"/>
<path d="M30.5808 265.556L54.5059 305.002H42.3635L23.2954 272.565L17.539 279.753V305.002H7.1955V236.264H17.539V268.521H17.8089C19.4278 265.826 21.1368 263.31 22.7558 260.884L40.4746 236.264H53.1568L30.5808 265.556ZM127.681 236.264V276.968C127.681 297.364 117.517 305.99 102.856 305.99C88.735 305.99 79.201 297.724 79.201 277.237V236.264H89.6345V277.866C89.6345 291.614 95.3009 297.454 103.216 297.454C111.851 297.454 117.247 291.524 117.247 277.866V236.264H127.681ZM209.196 236.264V305.002H198.672L180.594 272.834C176.456 265.376 172.319 257.29 169.171 249.562L168.811 249.652C169.351 258.368 169.531 267.263 169.531 279.304V305.002H159.907V236.264H171.239L189.228 268.072C193.546 275.62 197.413 283.527 200.381 290.805L200.651 290.715C199.842 281.37 199.572 272.565 199.572 261.603V236.264H209.196ZM316.646 296.196V305.002H279.679V236.264H290.113V296.196H316.646ZM392.259 236.264V276.968C392.259 297.364 382.096 305.99 367.435 305.99C353.314 305.99 343.78 297.724 343.78 277.237V236.264H354.213V277.866C354.213 291.614 359.88 297.454 367.795 297.454C376.429 297.454 381.826 291.524 381.826 277.866V236.264H392.259ZM473.774 236.264V305.002H463.251L445.172 272.834C441.035 265.376 436.897 257.29 433.749 249.562L433.39 249.652C433.929 258.368 434.109 267.263 434.109 279.304V305.002H424.485V236.264H435.818L453.807 268.072C458.124 275.62 461.992 283.527 464.96 290.805L465.23 290.715C464.42 281.37 464.15 272.565 464.15 261.603V236.264H473.774ZM593.549 236.264V305.002H583.026L564.947 272.834C560.809 265.376 556.672 257.29 553.524 249.562L553.164 249.652C553.704 258.368 553.884 267.263 553.884 279.304V305.002H544.26V236.264H555.593L573.581 268.072C577.899 275.62 581.766 283.527 584.734 290.805L585.004 290.715C584.195 281.37 583.925 272.565 583.925 261.603V236.264H593.549ZM663.435 296.286V305.002H625.929V236.264H661.906V244.98H636.362V264.837H660.467V273.463H636.362V296.286H663.435ZM726.766 238.331L724.247 246.957C721.999 245.699 717.681 243.902 712.015 243.902C703.83 243.902 700.412 248.664 700.412 253.067C700.412 258.907 704.28 261.782 713.004 265.556C724.067 270.408 729.374 276.428 729.374 285.863C729.374 297.364 720.829 305.99 705.359 305.99C698.883 305.99 692.047 304.103 688.72 301.857L691.058 293.141C694.746 295.387 700.322 297.184 705.989 297.184C714.174 297.184 718.761 292.961 718.761 286.762C718.761 280.921 715.253 277.327 707.068 273.912C696.814 269.779 689.889 263.579 689.889 254.235C689.889 243.362 698.613 235.186 712.285 235.186C718.851 235.186 723.798 236.803 726.766 238.331ZM799.45 236.264V245.159H780.832V305.002H770.398V245.159H751.87V236.264H799.45Z" fill="black"/>
</svg>
